<?xml version="1.0" standalone="no"?>
<!DOCTYPE svg PUBLIC "-//W3C//DTD SVG 20010904//EN"
 "http://www.w3.org/TR/2001/REC-SVG-20010904/DTD/svg10.dtd">
<svg version="1.0" xmlns="http://www.w3.org/2000/svg"
 width="588.000000pt" height="588.000000pt" viewBox="0 0 588.000000 588.000000"
 preserveAspectRatio="xMidYMid meet">
<metadata>
Created by potrace 1.14, written by Peter Selinger 2001-2017
</metadata>
<g transform="translate(0.000000,588.000000) scale(0.100000,-0.100000)"
fill="#000000" stroke="none">
<path d="M2640 5354 c-558 -72 -1088 -322 -1478 -698 -87 -83 -251 -283 -325
-396 -79 -121 -189 -340 -242 -484 -121 -327 -171 -755 -131 -1116 17 -157 18
-162 47 -295 52 -237 196 -573 333 -778 407 -609 1113 -1041 1841 -1126 266
-32 627 -1 893 75 938 268 1678 1075 1807 1969 9 61 18 121 21 135 12 74 16
406 5 515 -119 1186 -1002 2068 -2206 2205 -112 12 -451 9 -565 -6z m440 -753
l0 -549 133 -7 c72 -4 152 -5 177 -3 l45 3 3 287 2 286 -35 22 c-47 29 -92 97
-107 159 -24 103 28 212 126 264 63 33 166 31 228 -6 173 -101 161 -358 -19
-434 l-33 -13 0 -285 0 -285 500 2 500 2 2 200 3 199 71 -84 c81 -96 137 -176
137 -195 0 -7 3 -11 7 -9 11 7 102 -153 94 -166 -4 -7 -3 -9 3 -6 12 8 84
-135 138 -273 34 -86 105 -341 105 -376 0 -12 -69 -14 -445 -14 l-445 0 0
-130 0 -130 461 0 461 0 -5 -242 c-4 -211 -8 -259 -31 -363 -27 -126 -55 -224
-88 -312 l-19 -53 -570 0 -569 0 0 169 0 168 46 7 c26 3 228 6 450 6 l404 0 0
130 0 130 -338 0 -339 0 -61 31 c-65 32 -99 66 -135 133 -20 38 -22 57 -25
249 l-3 207 -383 0 -383 0 -6 -1133 c-4 -624 -4 -1215 0 -1314 l6 -180 -39 -6
c-21 -4 -102 -7 -178 -7 l-139 0 3 367 c2 203 3 797 2 1321 l-2 952 -341 0
-341 0 -82 67 c-44 37 -118 101 -163 141 -46 41 -83 73 -83 71 0 -2 -3 -48 -5
-101 -5 -83 -3 -98 10 -98 11 0 15 -10 15 -35 l0 -35 -125 0 -125 0 0 538 0
537 -36 23 c-86 56 -97 199 -21 280 139 150 391 11 338 -186 -14 -50 -59 -105
-101 -122 l-30 -12 0 -354 0 -354 1552 0 1551 0 -19 22 c-10 12 -23 28 -29 36
-5 7 -18 21 -27 29 -9 9 -14 21 -11 26 3 6 1 7 -4 4 -6 -4 -18 5 -28 19 -9 14
-31 39 -48 55 l-32 28 -857 1 -858 0 0 288 c0 158 -3 439 -7 625 l-6 337 101
0 102 0 0 -549z m-470 -57 l0 -595 -105 107 -105 108 2 465 3 465 48 12 c35 9
47 9 47 0 0 -8 2 -8 8 0 14 21 48 22 61 3 16 -27 31 -24 31 6 0 14 2 25 5 25
3 0 5 -268 5 -596z m-489 194 c0 -150 3 -316 5 -368 l4 -95 168 -169 c92 -94
173 -177 181 -185 13 -14 3 -16 -104 -19 l-120 -3 -167 168 -168 168 0 346 0
345 88 41 c48 23 93 42 100 42 9 1 12 -60 13 -271z m2101 -175 c198 -108 155
-404 -66 -451 -99 -21 -207 25 -261 112 -26 44 -30 58 -30 125 0 65 4 83 28
123 70 119 207 157 329 91z m-2887 -759 c31 -46 33 -104 4 -151 -55 -88 -188
-83 -232 10 -31 64 -16 120 43 170 l30 26 0 253 0 252 63 64 62 63 3 -325 2
-326 25 -36z m-365 -309 c458 -389 666 -561 670 -556 9 11 104 86 156 124 l52
37 336 0 336 0 0 -761 c0 -754 0 -760 -20 -746 -10 7 -99 83 -196 167 l-177
154 4 405 4 406 -44 -2 c-53 -3 -82 -22 -291 -189 -80 -63 -153 -120 -163
-125 -21 -12 -7 -23 -322 244 l-210 178 -5 -347 -5 -348 -95 83 c-52 46 -128
115 -168 154 l-73 72 3 585 c2 322 7 593 12 603 10 22 -2 30 196 -138z m849
61 c9 -11 9 -16 -1 -22 -7 -4 -10 -4 -6 1 4 4 3 14 -3 22 -6 7 -9 13 -6 13 2
0 10 -6 16 -14z m1841 -1611 l0 -1144 -67 -20 c-75 -22 -151 -40 -170 -41 -10
0 -13 242 -13 1175 l0 1175 125 0 125 0 0 -1145z m-1995 118 c88 -29 166 -138
165 -228 -2 -83 -61 -174 -137 -211 -47 -23 -62 -26 -123 -22 -133 10 -221 94
-228 219 -7 115 45 200 144 239 61 24 116 25 179 3z m2746 -365 c5 -8 150 -31
291 -46 37 -4 70 -10 73 -14 17 -17 -276 -327 -410 -433 l-60 -48 -3 257 c-2
255 -2 258 20 281 18 18 29 22 53 18 16 -4 33 -10 36 -15z m-311 -336 c0 -124
3 -152 16 -163 99 -82 9 -259 -120 -235 -18 3 -47 21 -65 40 -44 46 -52 106
-22 168 18 38 21 62 21 175 0 72 2 138 5 145 4 10 29 15 85 17 l80 2 0 -149z
m-1660 -22 c-13 -8 -13 -10 3 -10 9 0 17 5 17 10 0 6 7 10 15 10 8 0 15 -5 15
-11 0 -5 4 -8 9 -5 10 6 27 -591 17 -601 -3 -3 -50 5 -103 18 l-98 24 1 278
c0 192 3 280 11 285 19 12 130 14 113 2z"/>
<path d="M2963 5132 c9 -2 17 -10 17 -19 0 -9 6 -13 15 -9 8 3 15 1 15 -4 0
-6 -9 -10 -20 -10 -11 0 -20 -4 -20 -10 0 -5 9 -10 20 -10 11 0 20 -4 20 -9 0
-5 9 -11 20 -14 19 -5 26 -29 22 -82 -2 -16 0 -17 8 -5 5 8 10 52 10 97 l0 82
-62 -2 c-35 -1 -55 -3 -45 -5z"/>
<path d="M3492 4945 c-21 -9 -38 -27 -47 -49 -20 -47 -19 -75 5 -113 32 -54
116 -61 163 -15 23 23 32 88 18 124 -20 51 -86 77 -139 53z"/>
<path d="M2515 5100 c-3 -5 -20 -7 -38 -5 l-32 5 30 -10 c17 -6 38 -8 48 -6
11 3 17 2 14 -1 -3 -3 -1 -11 6 -17 20 -22 39 5 20 27 -18 19 -39 22 -48 7z"/>
<path d="M4050 4443 c-39 -27 -49 -45 -50 -86 0 -97 85 -148 166 -98 29 18 52
60 48 89 -1 6 -2 21 -3 31 0 11 -15 33 -32 50 -36 36 -89 42 -129 14z"/>
<path d="M1533 1934 c-83 -41 -75 -165 13 -194 72 -24 144 27 144 102 0 50
-13 74 -50 93 -37 19 -67 19 -107 -1z"/>
</g>
</svg>
